HIERARCHY
ROOT Hips
{
  OFFSET -10.3361 102.617 -184.42
  CHANNELS 6 Xposition Yposition Zposition Zrotation Xrotation Yrotation
  JOINT RightUpLeg
  {
    OFFSET -8.9458 -8.66707 0.101652
    CHANNELS 3 Zrotation Xrotation Yrotation
    JOINT RightLeg
    {
      OFFSET 0 -44.4227 1.3727
      CHANNELS 3 Zrotation Xrotation Yrotation
      JOINT RightFoot
      {
        OFFSET 0.253549 -42.0924 -1.46059
        CHANNELS 3 Zrotation Xrotation Yrotation
        JOINT RightToes
        {
          OFFSET 0.04 -4.41509 8.4991
          CHANNELS 3 Zrotation Xrotation Yrotation
          End Site
          {
            OFFSET -0.08 -0.137448 9.77979
          }
        }
      }
    }
  }
  JOINT Spine
  {
    OFFSET 0 11.8905 0
    CHANNELS 3 Zrotation Xrotation Yrotation
    JOINT Spine1
    {
      OFFSET 0 25.6574 0.127663
      CHANNELS 3 Zrotation Xrotation Yrotation
      JOINT HEad
      {
        OFFSET 0 8.73416 0.011341
        CHANNELS 3 Zrotation Xrotation Yrotation
        End Site
        {
          OFFSET -0.29 12.7742 2.51395
        }
      }
      JOINT LeftShoulder1
      {
        OFFSET 8.99 -0.362252 -0.22
        CHANNELS 3 Zrotation Xrotation Yrotation
        JOINT LeftArm
        {
          OFFSET 10.2827 -0.00338 0.322123
          CHANNELS 3 Zrotation Xrotation Yrotation
          JOINT LeftForeArm
          {
            OFFSET 32.7669 0.099144 -1.42434
            CHANNELS 3 Zrotation Xrotation Yrotation
            JOINT LeftHand
            {
              OFFSET 27.5643 0.085362 1.02216
              CHANNELS 3 Zrotation Xrotation Yrotation
              End Site
              {
                OFFSET 16.7443 -0.6 1.50291
              }
            }
          }
        }
      }
      JOINT RightShoulder
      {
        OFFSET -8.99 -0.362252 -0.22
        CHANNELS 3 Zrotation Xrotation Yrotation
        JOINT RightArm
        {
          OFFSET -10.2827 -0.00338 0.322123
          CHANNELS 3 Zrotation Xrotation Yrotation
          JOINT RightForeArm
          {
            OFFSET -32.8971 0.099144 -1.42434
            CHANNELS 3 Zrotation Xrotation Yrotation
            JOINT RightHand
            {
              OFFSET -27.4921 0.085362 1.02216
              CHANNELS 3 Zrotation Xrotation Yrotation
              End Site
              {
                OFFSET -16.6312 -0.6 1.50291
              }
            }
          }
        }
      }
    }
  }
  JOINT LeftUpLeg
  {
    OFFSET 8.9458 -8.66707 0.101652
    CHANNELS 3 Zrotation Xrotation Yrotation
    JOINT LeftLeg
    {
      OFFSET 0 -44.4227 1.3727
      CHANNELS 3 Zrotation Xrotation Yrotation
      JOINT LeftFoot
      {
        OFFSET -0.253549 -42.0924 -1.46059
        CHANNELS 3 Zrotation Xrotation Yrotation
        JOINT LeftToes
        {
          OFFSET -0.04 -4.41509 8.4991
          CHANNELS 3 Zrotation Xrotation Yrotation
          End Site
          {
            OFFSET 0.08 -0.047448 9.77979
          }
        }
      }
    }
  }
}
MOTION
Frames:	10
Frame Time:	0.0166667
-4.47604 102.074 -33.7104 0.648817 2.55747 6.92896 3.02519 -13.3984 8.53222 -0.726439 2.77178 -7.83745 -0.896418 -7.34153 -0.204271 0.0462048 0.000533964 0.662642 -5.39046 1.67145 0.100482 -2.59458 -9.32736 0.15228 4.48202 11.1377 -1.71103 -1.2921e-015 -7.95139e-016 -1.59028e-015 -85.8883 -7.92793 -14.292 -20.4614 20.3758 -49.1076 0.368473 9.90896 -0.00117926 13.65 -1.05079 -8.59628 54.3985 -42.9489 -19.5405 23.3782 13.4091 8.64116 -0.369625 9.91382 0.00119886 -1.00956 -1.64518 7.9136 0.615926 45.4733 9.82714 -4.33207 -2.21463 0.143093 -23.7928 27.3549 -10.2188 
-4.5387 102.145 -31.7836 -0.507437 2.61607 6.69271 4.52577 -12.3655 9.37402 -0.725429 2.81794 -7.57941 -0.830777 -8.47451 -0.214678 0.0462048 0.000533964 0.662642 -5.01861 1.88741 0.581889 -0.927498 -9.03655 0.414666 4.04605 10.1602 -1.95158 0 0 -0 -86.8588 -8.88029 -12.8615 -20.552 20.1468 -47.3011 0.368473 9.90896 -0.00117926 13.2106 -1.09342 -8.90576 57.157 -41.9972 -16.2933 23.5682 13.456 8.9175 -0.369625 9.91382 0.00119886 0.939994 -5.15446 9.64922 2.83594 50.0687 8.61961 -4.55194 6.04253 0.449531 -22.7253 26.5702 -9.75382 
-4.65251 102.235 -29.9427 -1.12426 2.49373 6.79391 5.39103 -10.9472 9.56293 -0.679879 2.45633 -7.48185 -1.39998 -8.98965 -0.248547 0.0462048 0.000533964 0.662642 -4.70745 2.33697 0.794086 -0.285768 -8.49766 0.48681 4.33333 8.95063 -2.12876 7.95139e-016 7.95139e-016 -0 -87.2974 -9.87998 -12.1371 -20.6993 19.7561 -44.6326 0.368473 9.90896 -0.00117926 12.8147 -1.05937 -8.8245 60.5958 -40.8196 -13.0379 23.7833 13.6719 10 -0.369625 9.91382 0.00119886 2.14311 -8.56636 9.9708 4.32616 54.8353 8.50663 -4.32784 11.6402 0.602888 -19.6377 23.1277 -8.75698 
-4.79344 102.358 -28.1854 -1.25739 2.34569 7.15596 5.75541 -9.49856 9.13439 -0.709736 2.08175 -7.23117 -2.07614 -9.37537 -0.28924 0.0462048 0.000533964 0.662642 -4.50353 2.72851 0.786319 -0.418877 -7.64238 0.436908 5.01653 7.6143 -2.26743 -3.97569e-016 3.97569e-016 -3.18055e-015 -87.3592 -10.8425 -12.0254 -20.921 19.2145 -41.1983 0.368473 9.90896 -0.00117926 12.6394 -0.976194 -8.45401 64.1599 -39.4035 -9.72383 24.0098 13.9889 11.5487 -0.369625 9.91382 0.00119886 2.64926 -12.0037 9.44766 5.14238 59.4515 9.70873 -3.44425 14.37 0.599351 -16.1037 19.5382 -7.68694 
-4.95511 102.572 -26.5017 -0.724349 2.27114 7.86554 5.42382 -8.27478 8.08864 -0.869934 2.08429 -6.83714 -2.42367 -10.0681 -0.323413 0.0462048 0.000533964 0.662642 -4.55074 2.72986 0.530808 -1.39639 -6.2412 0.276277 5.90408 6.19271 -2.41926 4.96962e-017 3.97569e-016 -0 -87.0839 -11.5829 -12.7114 -21.2822 18.547 -37.0025 0.368473 9.90896 -0.00117926 12.9822 -0.856438 -7.79468 67.2775 -37.7366 -6.41017 24.2582 14.392 13.4468 -0.369625 9.91382 0.00119886 2.23282 -15.3848 7.98565 4.1456 63.5392 14.0029 -1.28612 11.9993 0.29356 -14.3043 18.884 -6.88246 
-5.0937 102.804 -24.8675 0.10019 2.30714 8.61903 4.78089 -7.22872 6.72731 -1.04542 2.23188 -6.20504 -2.70559 -10.8299 -0.359555 0.0462048 0.000533964 0.662642 -4.59963 2.62155 0.141821 -2.74487 -4.79419 0.079255 6.83598 4.91656 -2.48739 3.72721e-016 1.98785e-016 1.59028e-015 -86.6356 -12.338 -13.6733 -21.6724 17.7126 -32.2613 0.368473 9.90896 -0.00117926 13.3432 -0.696202 -6.92435 70.2304 -35.9618 -3.11556 24.4157 14.8026 15.4087 -0.369625 9.91382 0.00119886 1.19482 -18.7356 6.2695 1.8489 66.6473 19.8125 0.959245 8.11673 -0.0377886 -13.1561 18.792 -6.22921 
-5.15889 102.998 -23.2674 0.887866 2.61752 9.18247 4.07048 -6.52993 5.09822 -1.12384 2.4521 -4.98769 -3.05905 -11.5989 -0.403577 0.0462048 0.000533964 0.662642 -4.42222 2.57378 -0.293257 -4.05348 -3.8237 -0.0732086 7.63405 4.08291 -2.44208 -1.29443e-015 1.3977e-016 -1.59028e-015 -86.1333 -13.1999 -14.4808 -22.1113 16.7635 -26.9695 0.368473 9.90896 -0.00117926 13.4227 -0.491095 -5.94042 73.0245 -34.2477 0.118132 24.4212 15.1598 17.0847 -0.369625 9.91382 0.00119886 -0.0149868 -22.188 4.98812 0.787589 68.4862 24.2525 2.12944 6.24747 -0.142883 -12.352 17.6747 -5.95134 
-5.16374 103.159 -21.6655 1.66769 2.921 9.43469 3.36016 -5.81994 3.93906 -1.15633 2.65465 -3.95265 -3.42591 -12.2826 -0.449792 0.0462048 0.000533964 0.662642 -4.09389 2.58556 -0.721692 -5.25118 -3.03393 -0.195975 8.18997 3.53288 -2.13183 -1.56543e-015 3.97569e-016 -0 -85.6644 -14.4475 -15.0398 -22.4217 15.7339 -21.7703 0.368473 9.90896 -0.00117926 12.9157 -0.255665 -4.78454 76.1133 -32.5301 3.43862 24.2197 15.4583 18.5279 -0.369625 9.91382 0.00119886 -1.31689 -25.2991 4.20871 0.527827 69.3232 26.8958 3.04336 4.35356 -0.153115 -11.3742 16.2187 -5.58207 
-5.08625 103.262 -20.0078 2.35751 3.00484 9.10178 2.77752 -4.79265 4.45064 -1.09092 2.68423 -4.10388 -3.78921 -12.6807 -0.491389 0.0462048 0.000533964 0.662642 -3.53823 2.75283 -1.06163 -6.11594 -2.41079 -0.277831 8.29731 3.28091 -1.31056 1.2921e-015 7.95139e-016 1.59028e-015 -85.3323 -16.5159 -15.0782 -22.5723 14.8281 -17.1874 0.368473 9.90896 -0.00117926 11.3651 0.0206442 -3.38913 79.9855 -30.8368 7.00655 23.7143 15.6523 19.562 -0.369625 9.91382 0.00119886 -2.39843 -27.6157 4.46369 1.07046 69.2714 26.1657 4.37575 1.20334 -0.106149 -9.08225 14.1987 -4.48363 
-4.98136 103.339 -18.333 2.99521 2.83203 8.40427 2.27586 -3.48392 5.29171 -1.06683 2.66505 -4.38702 -4.1601 -13.055 -0.53696 0.0462048 0.000533964 0.662642 -2.97626 2.95529 -1.31336 -6.68507 -1.6314 -0.314927 8.06645 3.10241 -0.233036 -1.49089e-015 -7.95139e-016 3.18055e-015 -85.1089 -19.0616 -14.7195 -22.6195 14.0819 -13.457 0.368473 9.90896 -0.00117926 8.92698 0.265826 -1.87906 84.4472 -29.0101 10.6857 22.9842 15.8146 20.5208 -0.369625 9.91382 0.00119886 -3.16729 -29.3034 5.20618 2.00998 68.359 24.1406 5.34333 -2.09789 -0.0188053 -6.88786 12.7337 -3.42791 
